<?xml version="1.0" encoding="UTF-8"?>
<svg version="1.1" xmlns="http://www.w3.org/2000/svg" width="376" height="382">
<path d="M0 0 C124.08 0 248.16 0 376 0 C376 126.06 376 252.12 376 382 C251.92 382 127.84 382 0 382 C0 255.94 0 129.88 0 0 Z " fill="#FDFDFD" transform="translate(0,0)"/>
<path d="M0 0 C22.44 0 44.88 0 68 0 C68 32.67 68 65.34 68 99 C78.56 99 89.12 99 100 99 C100 106.59 100 114.18 100 122 C82.51 122 65.02 122 47 122 C46.34 114.41 45.68 106.82 45 99 C44.26633535 93.17222183 44.26633535 93.17222183 43.5078125 87.34765625 C42.34263869 77.93716425 41.73634785 68.45177048 41 59 C39.35 59 37.7 59 36 59 C36 57.35 36 55.7 36 54 C40.62 54 45.24 54 50 54 C49.071875 50.7515625 49.071875 50.7515625 48.125 47.4375 C46.75 42.625 45.375 37.8125 44 33 C38.06 33 32.12 33 26 33 C24.04008826 38.22643132 22.48006362 42.66256631 21.3125 48 C20.879375 49.98 20.44625 51.96 20 54 C24.62 54 29.24 54 34 54 C34 55.65 34 57.3 34 59 C33.01 59 32.02 59 31 59 C31 59.66 31 60.32 31 61 C31.66 61 32.32 61 33 61 C33 61.99 33 62.98 33 64 C31.68 64 30.36 64 29 64 C29 61.69 29 59.38 29 57 C28.01 57 27.02 57 26 57 C25.96036133 57.56879883 25.92072266 58.13759766 25.87988281 58.72363281 C24.86382638 72.9764907 23.50810289 87.17416187 21.9375 101.375 C21.84964233 102.17893188 21.76178467 102.98286377 21.67126465 103.81115723 C21.41890492 106.1115449 21.16159454 108.41131732 20.90234375 110.7109375 C20.7883448 111.75001755 20.7883448 111.75001755 20.67204285 112.81008911 C20.34053314 115.69523718 19.92212062 118.23363815 19 121 C12.73 121 6.46 121 0 121 C0 81.07 0 41.14 0 0 Z " fill="#663202" transform="translate(90,144)"/>
<path d="M0 0 C43.89 0 87.78 0 133 0 C133.020625 17.634375 133.04125 35.26875 133.0625 53.4375 C133.071604 59.01454834 133.08070801 64.59159668 133.09008789 70.33764648 C133.09460449 77.12512207 133.09460449 77.12512207 133.09544373 80.29823303 C133.0969837 82.52402445 133.1005097 84.74981501 133.10557556 86.9756012 C133.11284968 90.3384853 133.11390753 93.70131824 133.11352539 97.06420898 C133.1171235 98.06302566 133.12072161 99.06184233 133.12442875 100.09092617 C133.12305125 100.99073239 133.12167376 101.89053862 133.12025452 102.81761169 C133.12163721 103.9998112 133.12163721 103.9998112 133.12304783 105.20589352 C133 107 133 107 132 108 C130.14712498 108.07226502 128.29166122 108.0838122 126.4375 108.0625 C125.42558594 108.05347656 124.41367187 108.04445313 123.37109375 108.03515625 C122.58863281 108.02355469 121.80617188 108.01195312 121 108 C121.48750732 107.49404297 121.97501465 106.98808594 122.47729492 106.46679688 C124.50694797 103.17873941 124.41336815 100.27640252 124.36328125 96.53125 C124.36377975 95.813927 124.36427826 95.096604 124.36479187 94.35754395 C124.36245685 92.84461693 124.35276201 91.33168562 124.33618164 89.81884766 C124.31257949 87.50778333 124.31562579 85.1978731 124.32226562 82.88671875 C124.31668857 81.41405565 124.30957851 79.94139739 124.30078125 78.46875 C124.30169266 77.78010864 124.30260406 77.09146729 124.30354309 76.38195801 C124.24572051 72.45429897 123.8174996 70.6349992 122 67 C113.75 67 105.5 67 97 67 C97.33 66.34 97.66 65.68 98 65 C102.29 65 106.58 65 111 65 C110.94895137 60.78083058 110.88605182 56.56535784 110.79248047 52.34741211 C110.76426818 50.91296317 110.74305476 49.47835871 110.72900391 48.04370117 C110.70757551 45.98014698 110.66093533 43.91846294 110.609375 41.85546875 C110.5779541 39.99378052 110.5779541 39.99378052 110.54589844 38.09448242 C110.29035564 35.00971928 110.29035564 35.00971928 108.44927979 33.3298645 C105.08450895 31.50292365 101.99748105 31.58846975 98.265625 31.62768555 C97.49118042 31.62403488 96.71673584 31.62038422 95.91882324 31.61662292 C93.36232482 31.60852593 90.80646193 31.62212018 88.25 31.63671875 C86.47167969 31.63723746 84.6933588 31.63671934 82.91503906 31.63520813 C79.18936596 31.63529782 75.46390942 31.64571967 71.73828125 31.66381836 C66.96322543 31.68650537 62.188486 31.68704922 57.41339111 31.68030071 C53.74167063 31.67695884 50.07002224 31.68359494 46.39831543 31.69342995 C44.63765846 31.69727847 42.87699347 31.6984316 41.11633301 31.6968441 C38.65552496 31.69647314 36.19512215 31.70910215 33.734375 31.7253418 C32.6432843 31.72162567 32.6432843 31.72162567 31.53015137 31.71783447 C27.5463595 31.75978199 25.68116398 32.15941801 22 34 C22 44.23 22 54.46 22 65 C25.63 65 29.26 65 33 65 C33.99 65.66 34.98 66.32 36 67 C35.29391602 67.01981934 34.58783203 67.03963867 33.86035156 67.06005859 C30.65653006 67.15540415 27.45335199 67.26504513 24.25 67.375 C23.13882813 67.4059375 22.02765625 67.436875 20.8828125 67.46875 C19.81289062 67.50742188 18.74296875 67.54609375 17.640625 67.5859375 C16.16384277 67.63306885 16.16384277 67.63306885 14.65722656 67.68115234 C11.6589101 67.88932152 11.6589101 67.88932152 8 70 C7.67 81.88 7.34 93.76 7 106 C5.35 106 3.7 106 2 106 C1.98969254 104.86074066 1.97938507 103.72148132 1.96876526 102.54769897 C1.87097234 91.80672969 1.76823271 81.06581757 1.66066074 70.32494164 C1.60551686 64.80307346 1.5521106 59.28119991 1.50268555 53.75927734 C1.454916 48.42947495 1.40256885 43.0997353 1.34705925 37.77000809 C1.32669268 35.73748972 1.30797036 33.70495418 1.29092598 31.67240524 C1.26675555 28.82369542 1.23671864 25.97510293 1.20532227 23.12646484 C1.1995668 22.28776855 1.19381134 21.44907227 1.18788147 20.58496094 C1.14658443 17.28438398 1.03204118 14.19183522 0.48716736 10.92959595 C0 8 0 8 0 0 Z " fill="#FD9902" transform="translate(158,135)"/>
<path d="M0 0 C3.86223846 1.67801137 6.98683446 4.20334637 10.25 6.8125 C10.85553711 7.29243408 11.46107422 7.77236816 12.08496094 8.2668457 C18.19942729 13.12708254 24.25517292 18.06020483 30.30859375 22.99609375 C34.07216691 26.06338197 37.86337846 29.0950429 41.66015625 32.12109375 C44.20628802 34.16565031 46.7285866 36.23754877 49.25 38.3125 C53.45730527 41.76510503 57.7131506 45.14737449 62 48.5 C67.06257811 52.46097967 72.06998709 56.47954151 77.03515625 60.5625 C80.61983943 63.50959131 84.21378955 66.44506131 87.8125 69.375 C88.48667969 69.92446289 89.16085937 70.47392578 89.85546875 71.04003906 C93.23350008 73.78468952 96.62832518 76.50271781 100.06640625 79.171875 C100.70795654 79.67025879 101.34950684 80.16864258 102.01049805 80.68212891 C103.22357718 81.62088728 104.43973805 82.55568133 105.65942383 83.48583984 C108.30801652 85.53349794 110.12243006 87.1836451 112 90 C86.16000078 91.66829263 86.16000078 91.66829263 79.5 86 C77.96481321 84.36568691 76.46232462 82.69981895 75 81 C73.4458813 79.69360156 71.86164674 78.42222936 70.25 77.1875 C67.34115594 74.86778891 64.43342411 72.54679836 61.53125 70.21875 C55.9822666 65.76953237 50.43027473 61.32640468 44.82324219 56.95043945 C38.97529966 52.38625314 33.214246 47.7306673 27.5 43 C22.08942145 38.52105238 16.64836165 34.08936755 11.125 29.75 C10.2597168 29.069375 10.2597168 29.069375 9.37695312 28.375 C6.96469206 26.48942078 4.54926285 24.69950857 2 23 C2 35.54 2 48.08 2 61 C4.64 61.33 7.28 61.66 10 62 C12.71484375 63.63671875 12.71484375 63.63671875 14.9375 65.6875 C16.06478516 66.68330078 16.06478516 66.68330078 17.21484375 67.69921875 C19 70 19 70 20 76 C7.46 76 -5.08 76 -18 76 C-16.85032867 69.10197202 -15.20093988 67.19394939 -10 63 C-6.17260471 60.90404544 -4.5957848 61 0 61 C0 48.46 0 35.92 0 23 C-10.56388923 31.10820848 -10.56388923 31.10820848 -20.9375 39.4375 C-26.02168151 43.59554833 -31.13675301 47.70647 -36.3125 51.75 C-41.27156853 55.62683896 -46.17297723 59.56423238 -51.03515625 63.5625 C-60.52517763 71.36457291 -70.0598344 79.10556961 -79.74731445 86.66162109 C-82.46496976 88.72495543 -82.46496976 88.72495543 -85 91 C-86.92667507 91.08748207 -88.85651861 91.10697334 -90.78515625 91.09765625 C-92.53989258 91.09282227 -92.53989258 91.09282227 -94.33007812 91.08789062 C-96.17762695 91.07532227 -96.17762695 91.07532227 -98.0625 91.0625 C-99.91584961 91.05573242 -99.91584961 91.05573242 -101.80664062 91.04882812 C-104.87114117 91.03699608 -107.93554721 91.02051173 -111 91 C-111 90.34 -111 89.68 -111 89 C-109.33984375 87.4765625 -109.33984375 87.4765625 -106.9375 85.625 C-106.02355469 84.91214844 -105.10960938 84.19929688 -104.16796875 83.46484375 C-103.40685791 82.87485596 -103.40685791 82.87485596 -102.63037109 82.27294922 C-99.64538364 79.94235254 -96.70193386 77.55971214 -93.75 75.1875 C-88.79619875 71.21694376 -83.81565686 67.28310793 -78.8125 63.375 C-73.46425053 59.19397991 -68.240968 54.88276836 -63.04296875 50.515625 C-59.27302169 47.39900638 -55.42358861 44.39398924 -51.56469727 41.38891602 C-46.78699069 37.65309721 -42.10559591 33.80904952 -37.4375 29.9375 C-32.44498297 25.79765012 -27.41966093 21.72914981 -22.25 17.8125 C-17.0925418 13.8956898 -12.12837847 9.80269609 -7.22363281 5.57739258 C-4.87742306 3.56026063 -2.57956185 1.7197079 0 0 Z " fill="#673608" transform="translate(189,37)"/>
<path d="M0 0 C0.77283829 -0.00686325 1.54567657 -0.0137265 2.3419342 -0.02079773 C4.89358963 -0.039081 7.44463109 -0.03522611 9.99633789 -0.02954102 C11.77226461 -0.0341022 13.54818956 -0.03940759 15.32411194 -0.04542542 C19.04557466 -0.05435959 22.76682283 -0.05193007 26.48828125 -0.04199219 C31.25445751 -0.030504 36.01989274 -0.05070987 40.78597164 -0.07990932 C44.45346268 -0.09826686 48.12077601 -0.09797974 51.78830147 -0.0922718 C53.54535524 -0.09211852 55.30242101 -0.09816844 57.05943108 -0.11056328 C59.5179563 -0.12546285 61.97511104 -0.11480485 64.43359375 -0.09765625 C65.15739227 -0.10732422 65.8811908 -0.11699219 66.62692261 -0.12695312 C70.1822799 -0.07509526 72.18818843 0.3462428 75.23651123 2.23490906 C78.10302965 5.27546762 77.85716873 7.23221231 77.76977539 11.35717773 C77.76270065 12.01739929 77.75562592 12.67762085 77.74833679 13.35784912 C77.72044141 15.45775766 77.65772701 17.55495652 77.59399414 19.65405273 C77.56890431 21.08109743 77.54609231 22.50818412 77.52563477 23.93530273 C77.47488686 27.42675843 77.37706885 30.9123899 77.28149414 34.40405273 C68.86649414 34.89905273 68.86649414 34.89905273 60.28149414 35.40405273 C59.29149414 38.37405273 58.30149414 41.34405273 57.28149414 44.40405273 C40.78149414 44.40405273 24.28149414 44.40405273 7.28149414 44.40405273 C6.29149414 40.93905273 6.29149414 40.93905273 5.28149414 37.40405273 C2.4353539 34.55791249 -0.52219728 34.94826197 -4.34350586 34.77905273 C-5.04991211 34.74038086 -5.75631836 34.70170898 -6.48413086 34.66186523 C-8.2284911 34.56757549 -9.97346277 34.48472383 -11.71850586 34.40405273 C-11.8174125 30.04417202 -11.88998962 25.684886 -11.93823242 21.32421875 C-11.95834345 19.84103012 -11.9856366 18.35792074 -12.02026367 16.875 C-12.06880938 14.74255838 -12.09147781 12.61116497 -12.10913086 10.47827148 C-12.13007813 9.19525146 -12.15102539 7.91223145 -12.17260742 6.59033203 C-11.71850586 3.40405273 -11.71850586 3.40405273 -10.17253113 1.73016357 C-6.81184819 -0.08588866 -3.72556397 -0.02310644 0 0 Z " fill="#FEFEFD" transform="translate(191.718505859375,165.595947265625)"/>
<path d="M0 0 C23.1 0 46.2 0 70 0 C71.125 6.75 71.125 6.75 71.12025452 10.21420288 C71.12231651 11.38772812 71.12231651 11.38772812 71.12442017 12.58496094 C71.11902725 13.84300537 71.11902725 13.84300537 71.11352539 15.12646484 C71.11367142 16.02466949 71.11381744 16.92287415 71.1139679 17.84829712 C71.11327398 20.80253557 71.10550605 23.75671013 71.09765625 26.7109375 C71.09579022 28.76502447 71.09436719 30.81911189 71.09336853 32.87319946 C71.08955794 38.26870969 71.07974012 43.66419283 71.06866455 49.05969238 C71.05841906 54.56973911 71.05386419 60.07979023 71.04882812 65.58984375 C71.03811653 76.39324104 71.02105764 87.19661826 71 98 C72.65 98 74.3 98 76 98 C75.97381592 96.92516357 75.94763184 95.85032715 75.9206543 94.74291992 C75.83018456 90.75680339 75.77276355 86.77077758 75.7253418 82.78393555 C75.70018995 81.05819441 75.66606381 79.33255988 75.62280273 77.60717773 C75.56217567 75.12717419 75.53379899 72.64857778 75.51171875 70.16796875 C75.48591232 69.39599655 75.4601059 68.62402435 75.43351746 67.82865906 C75.43237305 65.64526367 75.43237305 65.64526367 76 62 C79.11875883 59.21950655 81.83813945 58.62163807 85.94140625 58.5234375 C87.31135742 58.47703125 87.31135742 58.47703125 88.70898438 58.4296875 C89.65064453 58.41164062 90.59230469 58.39359375 91.5625 58.375 C93.4389015 58.32383704 95.31521421 58.26927845 97.19140625 58.2109375 C98.01842041 58.19337402 98.84543457 58.17581055 99.69750977 58.15771484 C102.00309908 58.07911051 102.00309908 58.07911051 104.15991211 57.38916016 C104.76714111 57.2607373 105.37437012 57.13231445 106 57 C108.25 58.5625 108.25 58.5625 110 61 C110 62.98 110 64.96 110 67 C126.5 67 143 67 160 67 C160.33 65.02 160.66 63.04 161 61 C163.0625 58.625 163.0625 58.625 165 57 C165.66 57.33 166.32 57.66 167 58 C168.81171098 58.15306901 170.6283794 58.24946661 172.4453125 58.31640625 C173.52167969 58.35830078 174.59804688 58.40019531 175.70703125 58.44335938 C176.83496094 58.48267578 177.96289062 58.52199219 179.125 58.5625 C180.26066406 58.60568359 181.39632812 58.64886719 182.56640625 58.69335938 C185.37747768 58.7996604 188.18863945 58.90169405 191 59 C191 59.33 191 59.66 191 60 C189.87972412 60.03758423 189.87972412 60.03758423 188.73681641 60.07592773 C185.36602733 60.19168213 181.99553217 60.31450128 178.625 60.4375 C177.449375 60.47681641 176.27375 60.51613281 175.0625 60.55664062 C173.94101562 60.59853516 172.81953125 60.64042969 171.6640625 60.68359375 C170.10872803 60.73858032 170.10872803 60.73858032 168.52197266 60.79467773 C166.00574834 60.84164223 166.00574834 60.84164223 164 62 C163.34444881 64.52733235 163.34444881 64.52733235 163 67 C164.03125 67.061875 165.0625 67.12375 166.125 67.1875 C170.95205627 68.1996247 172.55387071 69.55387071 176 73 C177.0592918 76.17787541 177.11458939 78.42588943 177.09765625 81.76171875 C177.09443359 82.87998047 177.09121094 83.99824219 177.08789062 85.15039062 C177.07951172 86.31763672 177.07113281 87.48488281 177.0625 88.6875 C177.05798828 89.86634766 177.05347656 91.04519531 177.04882812 92.25976562 C177.03703273 95.17322789 177.0205727 98.08658863 177 101 C176.01 100.67 175.02 100.34 174 100 C173.99589111 99.29915283 173.99178223 98.59830566 173.98754883 97.8762207 C173.95456628 94.68746795 173.88391668 91.50061395 173.8125 88.3125 C173.80669922 87.20970703 173.80089844 86.10691406 173.79492188 84.97070312 C173.76591797 83.90400391 173.73691406 82.83730469 173.70703125 81.73828125 C173.68346558 80.26935425 173.68346558 80.26935425 173.65942383 78.77075195 C172.74236611 74.91747982 171.03375996 73.49923689 168 71 C164.86706573 70.2692871 164.86706573 70.2692871 161.42138672 70.40063477 C160.11007782 70.39455704 158.79876892 70.38847931 157.44772339 70.38221741 C156.02503352 70.40111933 154.6023547 70.4208692 153.1796875 70.44140625 C151.71428854 70.44565914 150.24888283 70.44798524 148.78347778 70.44847107 C145.71845789 70.45462623 142.65417177 70.4772784 139.58935547 70.51293945 C135.66053793 70.55829156 131.7323827 70.57297017 127.80332756 70.57667637 C124.7801358 70.58110374 121.75708302 70.59640404 118.73395157 70.6155529 C117.28507758 70.62443082 115.83618881 70.6311629 114.38729477 70.63571358 C112.36473273 70.64475306 110.34225469 70.66882705 108.31982422 70.69360352 C107.16908417 70.70424332 106.01834412 70.71488312 104.83273315 70.72584534 C101.79653432 70.79477775 101.79653432 70.79477775 99 73 C98.00544091 75.98367726 97.80440368 78.2004192 97.68359375 81.32421875 C97.64169922 82.35224609 97.59980469 83.38027344 97.55664062 84.43945312 C97.51732422 85.51130859 97.47800781 86.58316406 97.4375 87.6875 C97.37272461 89.31268555 97.37272461 89.31268555 97.30664062 90.97070312 C97.20053162 93.64700791 97.09847639 96.32340526 97 99 C98.98 99.495 98.98 99.495 101 100 C90.44 100 79.88 100 69 100 C69 67.33 69 34.66 69 1 C46.56 1 24.12 1 1 1 C1 40.93 1 80.86 1 122 C7.27 122 13.54 122 20 122 C20.495 120.515 20.495 120.515 21 119 C21 120.32 21 121.64 21 123 C14.07 123 7.14 123 0 123 C0 82.41 0 41.82 0 0 Z " fill="#F4A430" transform="translate(89,143)"/>
<path d="M0 0 C0.99 0 1.98 0 3 0 C5.18226437 20.31856488 7.36340295 40.62867355 9 61 C6.03 61 3.06 61 0 61 C0 42.85 0 24.7 0 6 C-0.99 6 -1.98 6 -3 6 C-3 24.15 -3 42.3 -3 61 C-6.63 61 -10.26 61 -14 61 C-14.12169342 54.82282393 -13.65839616 48.86683588 -12.94140625 42.734375 C-12.8327977 41.7785553 -12.72418915 40.8227356 -12.61228943 39.83795166 C-12.38324003 37.83084924 -12.15200936 35.82399465 -11.91870117 33.81738281 C-11.56204097 30.74604711 -11.21311596 27.67390363 -10.86523438 24.6015625 C-10.64107981 22.64578115 -10.41648577 20.69005011 -10.19140625 18.734375 C-10.08719864 17.81767029 -9.98299103 16.90096558 -9.87562561 15.95648193 C-9.77559738 15.1016925 -9.67556915 14.24690308 -9.57250977 13.36621094 C-9.48590591 12.61756775 -9.39930206 11.86892456 -9.31007385 11.09759521 C-9.0060651 9.04102933 -8.50421077 7.01684309 -8 5 C-4.7 5 -1.4 5 2 5 C2 4.34 2 3.68 2 3 C1.34 3 0.68 3 0 3 C0 2.01 0 1.02 0 0 Z " fill="#69390D" transform="translate(126,205)"/>
<path d="M0 0 C2.56616211 -0.38818359 2.56616211 -0.38818359 5.77734375 -0.3984375 C6.93041016 -0.40230469 8.08347656 -0.40617188 9.27148438 -0.41015625 C11.08616211 -0.39275391 11.08616211 -0.39275391 12.9375 -0.375 C14.14341797 -0.38660156 15.34933594 -0.39820313 16.59179688 -0.41015625 C17.74615234 -0.40628906 18.90050781 -0.40242187 20.08984375 -0.3984375 C21.15066162 -0.39505371 22.21147949 -0.39166992 23.30444336 -0.38818359 C26 0 26 0 27.86938477 1.27490234 C29 3 29 3 29 7 C27.046875 7.390625 25.09375 7.78125 23.140625 8.171875 C20.27364774 9.28099759 18.94710883 10.61953465 17 13 C16.36171531 15.88873888 16.36171531 15.88873888 16.390625 19.078125 C16.35839844 20.23828125 16.32617188 21.3984375 16.29296875 22.59375 C16.27169922 24.40359375 16.27169922 24.40359375 16.25 26.25 C16.20552734 28.08304688 16.20552734 28.08304688 16.16015625 29.953125 C16.08947598 32.96881644 16.03676825 35.9837355 16 39 C13.37438891 39.08074203 10.75124324 39.1403623 8.125 39.1875 C7.37863281 39.21263672 6.63226563 39.23777344 5.86328125 39.26367188 C3.6953125 39.29296875 3.6953125 39.29296875 0 39 C-2.40491105 35.39263342 -2.28982863 32.76038725 -2.265625 28.59375 C-2.26753845 27.87264038 -2.2694519 27.15153076 -2.27142334 26.40856934 C-2.27278301 24.88549449 -2.26910177 23.36240798 -2.26074219 21.83935547 C-2.25003914 19.50852417 -2.26064438 17.17846358 -2.2734375 14.84765625 C-2.27211587 13.3671858 -2.26955339 11.88671583 -2.265625 10.40625 C-2.27169769 9.36084045 -2.27169769 9.36084045 -2.27789307 8.29431152 C-2.24247329 4.63804039 -2.08630382 3.12945572 0 0 Z " fill="#FDFBF6" transform="translate(168,203)"/>
<path d="M0 0 C3.06303578 -0.08115993 6.12390815 -0.14057409 9.1875 -0.1875 C10.48397461 -0.22520508 10.48397461 -0.22520508 11.80664062 -0.26367188 C16.72698209 -0.32022752 19.98693063 -0.19276261 24 3 C25 4 25 4 25.3125 7.8125 C25.29463537 11.12936552 25.17180376 11.7852453 23 14.5 C22.34 14.995 21.68 15.49 21 16 C22.3413735 19.8276567 24.04962061 22.56630975 26.625 25.6875 C30 29.78571429 30 29.78571429 30 32 C25.27104394 32.32992717 22.8329113 31.78593082 19 29 C17.3046875 26.5546875 17.3046875 26.5546875 15.875 23.875 C13.90997175 19.84670597 13.90997175 19.84670597 10 18 C10.06000106 19.6260287 10.1487885 21.25101549 10.25 22.875 C10.29640625 23.77992188 10.3428125 24.68484375 10.390625 25.6171875 C10.75611148 28.17110544 10.75611148 28.17110544 13.046875 29.3203125 C13.69140625 29.54460937 14.3359375 29.76890625 15 30 C15 30.66 15 31.32 15 32 C9.72 32 4.44 32 -1 32 C-1 31.34 -1 30.68 -1 30 C0.32 29.34 1.64 28.68 3 28 C3 19.75 3 11.5 3 3 C2.01 2.67 1.02 2.34 0 2 C0 1.34 0 0.68 0 0 Z " fill="#0D0D0D" transform="translate(114,285)"/>
<path d="M0 0 C3.06303578 -0.08115993 6.12390815 -0.14057409 9.1875 -0.1875 C10.48397461 -0.22520508 10.48397461 -0.22520508 11.80664062 -0.26367188 C16.72698209 -0.32022752 19.98693063 -0.19276261 24 3 C25 4 25 4 25.3125 7.8125 C25.29463537 11.12936552 25.17180376 11.7852453 23 14.5 C22.34 14.995 21.68 15.49 21 16 C22.37981221 20.41539907 24.82110303 23.56490699 27.66015625 27.1328125 C29 29 29 29 30 32 C25.27104394 32.32992717 22.8329113 31.78593082 19 29 C17.3046875 26.5546875 17.3046875 26.5546875 15.875 23.875 C13.90997175 19.84670597 13.90997175 19.84670597 10 18 C10.0870005 19.62600941 10.1951781 21.25089678 10.3125 22.875 C10.39951172 24.23238281 10.39951172 24.23238281 10.48828125 25.6171875 C10.7882039 28.36221601 10.7882039 28.36221601 14 30 C14 30.66 14 31.32 14 32 C9.05 32 4.1 32 -1 32 C-1 31.34 -1 30.68 -1 30 C0.32 29.34 1.64 28.68 3 28 C3.08678303 24.04180389 3.14031733 20.08385066 3.1875 16.125 C3.21263672 14.99707031 3.23777344 13.86914062 3.26367188 12.70703125 C3.27333984 11.63066406 3.28300781 10.55429687 3.29296875 9.4453125 C3.3086792 8.45031738 3.32438965 7.45532227 3.34057617 6.43017578 C3.22818604 5.62821777 3.1157959 4.82625977 3 4 C2.01 3.34 1.02 2.68 0 2 C0 1.34 0 0.68 0 0 Z " fill="#0A0A0A" transform="translate(272,285)"/>
<path d="M0 0 C1.32 0.33 2.64 0.66 4 1 C3.67 13.54 3.34 26.08 3 39 C5.64 39.33 8.28 39.66 11 40 C13.71484375 41.63671875 13.71484375 41.63671875 15.9375 43.6875 C16.68902344 44.35136719 17.44054687 45.01523438 18.21484375 45.69921875 C20 48 20 48 21 54 C8.46 54 -4.08 54 -17 54 C-15.85032867 47.10197202 -14.20093988 45.19394939 -9 41 C-5.17260471 38.90404544 -3.5957848 39 1 39 C0.505 19.695 0.505 19.695 0 0 Z " fill="#6B3E13" transform="translate(188,59)"/>
<path d="M0 0 C23.1 0 46.2 0 70 0 C71.125 6.75 71.125 6.75 71.12025452 10.21420288 C71.12231651 11.38772812 71.12231651 11.38772812 71.12442017 12.58496094 C71.11902725 13.84300537 71.11902725 13.84300537 71.11352539 15.12646484 C71.11367142 16.02466949 71.11381744 16.92287415 71.1139679 17.84829712 C71.11327398 20.80253557 71.10550605 23.75671013 71.09765625 26.7109375 C71.09579022 28.76502447 71.09436719 30.81911189 71.09336853 32.87319946 C71.08955794 38.26870969 71.07974012 43.66419283 71.06866455 49.05969238 C71.05841906 54.56973911 71.05386419 60.07979023 71.04882812 65.58984375 C71.03811653 76.39324104 71.02105764 87.19661826 71 98 C72.65 98 74.3 98 76 98 C76 86.12 76 74.24 76 62 C76.66 61.67 77.32 61.34 78 61 C77.99214478 62.57467041 77.99214478 62.57467041 77.98413086 64.18115234 C77.96605761 68.06867625 77.95455946 71.95619644 77.94506836 75.84375 C77.94003347 77.52767562 77.93320519 79.21159686 77.92456055 80.89550781 C77.91245804 83.31316203 77.90676332 85.73075856 77.90234375 88.1484375 C77.89718246 88.9036972 77.89202118 89.65895691 77.88670349 90.43710327 C77.80679812 94.34648109 77.80679812 94.34648109 79 98 C81.71446979 98.31241455 84.33909361 98.51336592 87.0625 98.625 C87.82111328 98.66367188 88.57972656 98.70234375 89.36132812 98.7421875 C91.24047195 98.83673562 93.12020336 98.91946756 95 99 C95 99.33 95 99.66 95 100 C86.42 100 77.84 100 69 100 C69 67.33 69 34.66 69 1 C46.56 1 24.12 1 1 1 C1 40.93 1 80.86 1 122 C7.27 122 13.54 122 20 122 C20.495 120.515 20.495 120.515 21 119 C21 120.32 21 121.64 21 123 C14.07 123 7.14 123 0 123 C0 82.41 0 41.82 0 0 Z " fill="#BD8638" transform="translate(89,143)"/>
<path d="M0 0 C3.60979737 -0.93439445 6.39346461 -1.00832914 10 0 C14.08499166 3.06660083 17.30379073 7.16588234 20.48950195 11.12548828 C22.62646056 13.77743077 24.81966773 16.38360128 27 19 C27.33 13.72 27.66 8.44 28 3 C25.525 2.505 25.525 2.505 23 2 C23 1.34 23 0.68 23 0 C26.96 0 30.92 0 35 0 C35 0.66 35 1.32 35 2 C34.01 2.33 33.02 2.66 32 3 C31.67 12.57 31.34 22.14 31 32 C26.31908067 30.82977017 25.3217321 29.55377497 22.1875 26 C21.31609375 25.01257813 20.4446875 24.02515625 19.546875 23.0078125 C16.691276 19.63540264 13.94253373 16.20400931 11.27734375 12.6796875 C10.10601502 11.06107464 10.10601502 11.06107464 9 10 C9 15.94 9 21.88 9 28 C10.32 28.66 11.64 29.32 13 30 C13 30.66 13 31.32 13 32 C9.04 32 5.08 32 1 32 C1.33 31.01 1.66 30.02 2 29 C2.66 28.67 3.32 28.34 4 28 C4 20.08 4 12.16 4 4 C2.68 3.34 1.36 2.68 0 2 C0 1.34 0 0.68 0 0 Z " fill="#0E0E0E" transform="translate(145,285)"/>
<path d="M0 0 C2 3.75 2 3.75 2 6 C-2.62 6 -7.24 6 -12 6 C-12 7.65 -12 9.3 -12 11 C-10.35 11 -8.7 11 -7 11 C-5.53912952 13.92174095 -5.56825326 16.73410365 -5.28125 19.984375 C-5.21844849 20.6775885 -5.15564697 21.370802 -5.09094238 22.08502197 C-4.8901429 24.30635842 -4.69469087 26.52812046 -4.5 28.75 C-4.30470699 30.9575343 -4.10820906 33.16494167 -3.90905762 35.37213135 C-3.7276549 37.38553856 -3.55024762 39.39930456 -3.37304688 41.41308594 C-3.13776929 43.67532308 -2.83762948 45.93260804 -2.44750977 48.17333984 C-2.02945699 50.81393722 -1.95717747 53.08310114 -2.12109375 55.7421875 C-2.16943359 56.58007812 -2.21777344 57.41796875 -2.26757812 58.28125 C-2.32365234 59.1371875 -2.37972656 59.993125 -2.4375 60.875 C-2.48970703 61.75414062 -2.54191406 62.63328125 -2.59570312 63.5390625 C-2.72447561 65.69307499 -2.86141463 67.84659659 -3 70 C-3.33 70 -3.66 70 -4 70 C-4.71872426 63.32955712 -5.4299936 56.65834871 -6.13623047 49.98657227 C-6.37705081 47.71979024 -6.61954 45.45318483 -6.86376953 43.18676758 C-7.21572001 39.91793772 -7.56154642 36.64850729 -7.90625 33.37890625 C-8.0156189 32.37541641 -8.12498779 31.37192657 -8.2376709 30.33802795 C-8.84402546 24.52114178 -9.10552143 18.84852514 -9 13 C-9.99 13 -10.98 13 -12 13 C-12 13.99 -12 14.98 -12 16 C-11.34 16 -10.68 16 -10 16 C-10 16.66 -10 17.32 -10 18 C-13.3 18 -16.6 18 -20 18 C-20.09796875 19.36125 -20.1959375 20.7225 -20.296875 22.125 C-21.61472115 39.49743833 -23.73422029 56.73126262 -26 74 C-26.66 74 -27.32 74 -28 74 C-28.1326228 66.08586106 -27.80079119 58.3697001 -26.94140625 50.50390625 C-26.8327977 49.46733383 -26.72418915 48.43076141 -26.61228943 47.36277771 C-26.38401578 45.19539944 -26.152792 43.02832996 -25.91870117 40.86157227 C-25.56083331 37.54706343 -25.21228152 34.23167327 -24.86523438 30.91601562 C-24.64116261 28.79942218 -24.41657178 26.68288361 -24.19140625 24.56640625 C-24.08719864 23.57991592 -23.98299103 22.5934256 -23.87562561 21.57704163 C-23.77559738 20.65515549 -23.67556915 19.73326935 -23.57250977 18.78344727 C-23.48590591 17.97802994 -23.39930206 17.17261261 -23.31007385 16.3427887 C-22.98236 13.86671954 -22.51531855 11.44332101 -22 9 C-21.01 9 -20.02 9 -19 9 C-19 11.31 -19 13.62 -19 16 C-17.68 16 -16.36 16 -15 16 C-15 15.01 -15 14.02 -15 13 C-15.66 13 -16.32 13 -17 13 C-17 12.34 -17 11.68 -17 11 C-16.01 11 -15.02 11 -14 11 C-14 9.35 -14 7.7 -14 6 C-18.62 6 -23.24 6 -28 6 C-27.67 5.01 -27.34 4.02 -27 3 C-27 3.66 -27 4.32 -27 5 C-26.22398438 4.84402344 -25.44796875 4.68804687 -24.6484375 4.52734375 C-16.1982399 3.00469478 -8.51911628 3.05485067 0 4 C0 2.68 0 1.36 0 0 Z " fill="#EADCCF" transform="translate(138,192)"/>
<path d="M0 0 C7.59 0 15.18 0 23 0 C23 2.64 23 5.28 23 8 C22.34 8 21.68 8 21 8 C20.443125 6.7934375 20.443125 6.7934375 19.875 5.5625 C18.30777176 2.86762813 18.30777176 2.86762813 16.02734375 2.4453125 C14.02626435 2.21238262 12.01215861 2.09895862 10 2 C10 5.96 10 9.92 10 14 C13.43230448 13.73606499 13.43230448 13.73606499 17 13 C17.66 12.01 18.32 11.02 19 10 C19.66 10 20.32 10 21 10 C21 13.63 21 17.26 21 21 C20.34 21 19.68 21 19 21 C18.67 19.68 18.34 18.36 18 17 C15.36 17 12.72 17 10 17 C10.33 20.63 10.66 24.26 11 28 C15.52813028 28.34580593 15.52813028 28.34580593 20 28 C22.47208796 25.64167228 22.47208796 25.64167228 24 23 C24.66 23 25.32 23 26 23 C25.34 25.97 24.68 28.94 24 32 C15.75 32 7.5 32 -1 32 C-1 31.34 -1 30.68 -1 30 C0.32 29.67 1.64 29.34 3 29 C2.67 20.42 2.34 11.84 2 3 C1.34 2.67 0.68 2.34 0 2 C0 1.34 0 0.68 0 0 Z " fill="#0D0D0D" transform="translate(305,285)"/>
<path d="M0 0 C4.95 0 9.9 0 15 0 C15 0.66 15 1.32 15 2 C14.01 2.33 13.02 2.66 12 3 C11.91275294 6.4165052 11.85952675 9.83272313 11.8125 13.25 C11.78736328 14.21808594 11.76222656 15.18617188 11.73632812 16.18359375 C11.72666016 17.11816406 11.71699219 18.05273438 11.70703125 19.015625 C11.6913208 19.87446289 11.67561035 20.73330078 11.65942383 21.61816406 C12.07956952 24.55647328 12.91488092 25.90560042 15 28 C18.75684104 28.33543224 21.41996227 28.19334591 25 27 C26.11662325 24.10822183 26.11735344 21.30713697 26.09765625 18.234375 C26.09282227 16.90019531 26.09282227 16.90019531 26.08789062 15.5390625 C26.07951172 14.61867188 26.07113281 13.69828125 26.0625 12.75 C26.05798828 11.81414062 26.05347656 10.87828125 26.04882812 9.9140625 C26.03706918 7.60930959 26.02063426 5.30468773 26 3 C24.68 2.67 23.36 2.34 22 2 C22 1.34 22 0.68 22 0 C25.96 0 29.92 0 34 0 C34 0.66 34 1.32 34 2 C33.01 2.33 32.02 2.66 31 3 C30.9906543 3.56920166 30.98130859 4.13840332 30.97167969 4.72485352 C30.91753831 7.33823653 30.83398255 9.94991242 30.75 12.5625 C30.72873047 13.90538086 30.72873047 13.90538086 30.70703125 15.27539062 C30.48612077 21.30624672 29.62328337 25.11113715 26 30 C21.71321198 33.15822546 16.07056917 32.73274121 11 32 C7.3282787 30.14990787 5.31804316 27.95412948 4 24 C3.85284801 22.37432921 3.75278133 20.74413143 3.68359375 19.11328125 C3.64169922 18.17548828 3.59980469 17.23769531 3.55664062 16.27148438 C3.51732422 15.29501953 3.47800781 14.31855469 3.4375 13.3125 C3.37272461 11.83040039 3.37272461 11.83040039 3.30664062 10.31835938 C3.20058346 7.87904454 3.09852286 5.43962887 3 3 C2.01 2.67 1.02 2.34 0 2 C0 1.34 0 0.68 0 0 Z " fill="#0D0D0D" transform="translate(235,285)"/>
<path d="M0 0 C4.95 0 9.9 0 15 0 C15 0.66 15 1.32 15 2 C14.01 2.33 13.02 2.66 12 3 C11.91275294 6.4165052 11.85952675 9.83272313 11.8125 13.25 C11.78736328 14.21808594 11.76222656 15.18617188 11.73632812 16.18359375 C11.72666016 17.11816406 11.71699219 18.05273438 11.70703125 19.015625 C11.6913208 19.87446289 11.67561035 20.73330078 11.65942383 21.61816406 C12.07962319 24.55684863 12.91977361 25.90095749 15 28 C19.73215584 28.62285815 19.73215584 28.62285815 23.875 26.625 C25.8875879 23.71792859 26.11979573 21.92772503 26.09765625 18.4296875 C26.09282227 17.08583984 26.09282227 17.08583984 26.08789062 15.71484375 C26.07951172 14.77769531 26.07113281 13.84054687 26.0625 12.875 C26.05798828 11.93011719 26.05347656 10.98523438 26.04882812 10.01171875 C26.03702357 7.67441613 26.02055759 5.33723939 26 3 C24.68 2.67 23.36 2.34 22 2 C22 1.34 22 0.68 22 0 C25.96 0 29.92 0 34 0 C34 0.66 34 1.32 34 2 C33.01 2.33 32.02 2.66 31 3 C30.9906543 3.56920166 30.98130859 4.13840332 30.97167969 4.72485352 C30.91753831 7.33823653 30.83398255 9.94991242 30.75 12.5625 C30.72873047 13.90538086 30.72873047 13.90538086 30.70703125 15.27539062 C30.48612077 21.30624672 29.62328337 25.11113715 26 30 C21.7176998 33.17012817 16.07707455 32.61768563 11 32 C7.29933337 29.88533335 5.61450683 27.87377085 4 24 C3.68115234 21.61816406 3.68115234 21.61816406 3.5859375 19.015625 C3.54726562 18.08105469 3.50859375 17.14648438 3.46875 16.18359375 C3.42234375 14.73146484 3.42234375 14.73146484 3.375 13.25 C3.33632812 12.26644531 3.29765625 11.28289062 3.2578125 10.26953125 C3.16371574 7.84653963 3.07807672 5.42355204 3 3 C2.01 2.67 1.02 2.34 0 2 C0 1.34 0 0.68 0 0 Z " fill="#0E0E0E" transform="translate(77,285)"/>
<path d="M0 0 C7.92 0 15.84 0 24 0 C24 2.64 24 5.28 24 8 C23.34 8 22.68 8 22 8 C21.443125 6.7934375 21.443125 6.7934375 20.875 5.5625 C19.30777176 2.86762813 19.30777176 2.86762813 17.02734375 2.4453125 C15.02626435 2.21238262 13.01215861 2.09895862 11 2 C11 6.29 11 10.58 11 15 C14.43793339 14.81870185 14.43793339 14.81870185 18 14 C19.51294288 12.06402968 19.51294288 12.06402968 20 10 C20.66 10 21.32 10 22 10 C22 13.63 22 17.26 22 21 C21.34 21 20.68 21 20 21 C19.34 20.01 18.68 19.02 18 18 C14.43230448 17.26393501 14.43230448 17.26393501 11 17 C11 20.96 11 24.92 11 29 C12.65 29 14.3 29 16 29 C16 29.99 16 30.98 16 32 C10.72 32 5.44 32 0 32 C0 31.34 0 30.68 0 30 C0.99 29.67 1.98 29.34 3 29 C3 20.42 3 11.84 3 3 C2.01 2.67 1.02 2.34 0 2 C0 1.34 0 0.68 0 0 Z " fill="#111111" transform="translate(49,285)"/>
<path d="M0 0 C9.24 0 18.48 0 28 0 C28 2.97 28 5.94 28 9 C27.34 9 26.68 9 26 9 C25.5875 8.195625 25.175 7.39125 24.75 6.5625 C24.1725 5.716875 23.595 4.87125 23 4 C20.03 3.505 20.03 3.505 17 3 C17.33 11.58 17.66 20.16 18 29 C19.32 29.66 20.64 30.32 22 31 C22 31.66 22 32.32 22 33 C16.72 33 11.44 33 6 33 C6 32.34 6 31.68 6 31 C6.99 30.67 7.98 30.34 9 30 C9.33 21.09 9.66 12.18 10 3 C4.11475475 3.35218402 4.11475475 3.35218402 1.625 6.5625 C1.08875 7.366875 0.5525 8.17125 0 9 C0 6.03 0 3.06 0 0 Z " fill="#121212" transform="translate(203,284)"/>
<path d="M0 0 C43.89 0 87.78 0 133 0 C133.020625 17.634375 133.04125 35.26875 133.0625 53.4375 C133.071604 59.01454834 133.08070801 64.59159668 133.09008789 70.33764648 C133.09460449 77.12512207 133.09460449 77.12512207 133.09544373 80.29823303 C133.0969837 82.52402445 133.1005097 84.74981501 133.10557556 86.9756012 C133.11284968 90.3384853 133.11390753 93.70131824 133.11352539 97.06420898 C133.1171235 98.06302566 133.12072161 99.06184233 133.12442875 100.09092617 C133.12305125 100.99073239 133.12167376 101.89053862 133.12025452 102.81761169 C133.12163721 103.9998112 133.12163721 103.9998112 133.12304783 105.20589352 C133 107 133 107 132 108 C130.14712498 108.07226502 128.29166122 108.0838122 126.4375 108.0625 C125.42558594 108.05347656 124.41367187 108.04445313 123.37109375 108.03515625 C122.58863281 108.02355469 121.80617188 108.01195312 121 108 C122.32 106.68 123.64 105.36 125 104 C125 104.66 125 105.32 125 106 C126.98 106 128.96 106 131 106 C131.33 71.35 131.66 36.7 132 1 C88.77 1 45.54 1 1 1 C1 3.31 1 5.62 1 8 C0.67 8 0.34 8 0 8 C0 5.36 0 2.72 0 0 Z " fill="#EFB04F" transform="translate(158,135)"/>
<path d="M0 0 C2.57535133 -0.30777457 4.91251855 -0.41989073 7.49145508 -0.40405273 C8.26400131 -0.41091599 9.03654755 -0.41777924 9.83250427 -0.42485046 C12.39503186 -0.44320163 14.95695182 -0.43926821 17.51953125 -0.43359375 C19.29831645 -0.4381527 21.07709988 -0.44345741 22.85588074 -0.44947815 C26.58929586 -0.45842641 30.32249729 -0.45596805 34.0559082 -0.44604492 C38.83783575 -0.43457309 43.61902292 -0.45473028 48.40085316 -0.48396206 C52.0769265 -0.50232361 55.75282259 -0.50203136 59.42893028 -0.49632454 C61.1915662 -0.49617121 62.95421404 -0.50222513 64.71680641 -0.51461601 C67.18512707 -0.52951775 69.65208295 -0.5188548 72.12036133 -0.50170898 C72.84730194 -0.51137695 73.57424255 -0.52104492 74.32321167 -0.53100586 C77.88587443 -0.47926325 79.90189611 -0.060742 82.95700073 1.83085632 C85.82101192 4.87170507 85.57564515 6.82954905 85.48828125 10.953125 C85.48120651 11.61334656 85.47413177 12.27356812 85.46684265 12.95379639 C85.43894727 15.05370492 85.37623287 17.15090379 85.3125 19.25 C85.28741017 20.6770447 85.26459817 22.10413138 85.24414062 23.53125 C85.19339272 27.02270569 85.09557471 30.50833717 85 34 C80.71 34 76.42 34 72 34 C72 33.67 72 33.34 72 33 C76.95 32.505 76.95 32.505 82 32 C82 22.43 82 12.86 82 3 C54.28 3 26.56 3 -2 3 C-1.34 2.01 -0.68 1.02 0 0 Z " fill="#F9E8BE" transform="translate(184,166)"/>
<path d="M0 0 C4.95 0 9.9 0 15 0 C15 0.66 15 1.32 15 2 C14.01 2.33 13.02 2.66 12 3 C11.91323092 7.12486838 11.85968705 11.24950384 11.8125 15.375 C11.78736328 16.550625 11.76222656 17.72625 11.73632812 18.9375 C11.72666016 20.05898438 11.71699219 21.18046875 11.70703125 22.3359375 C11.6913208 23.37282715 11.67561035 24.4097168 11.65942383 25.47802734 C11.77181396 26.31027832 11.8842041 27.1425293 12 28 C12.99 28.66 13.98 29.32 15 30 C15 30.66 15 31.32 15 32 C10.05 32 5.1 32 0 32 C0 31.34 0 30.68 0 30 C0.99 29.67 1.98 29.34 3 29 C3 20.42 3 11.84 3 3 C2.01 2.67 1.02 2.34 0 2 C0 1.34 0 0.68 0 0 Z " fill="#151515" transform="translate(183,285)"/>
<path d="M0 0 C2.9375 0.25 2.9375 0.25 6 1 C8 4 8 4 8.5 7.125 C8.665 8.07375 8.83 9.0225 9 10 C9.66 10.33 10.32 10.66 11 11 C10.65001953 12.08087891 10.65001953 12.08087891 10.29296875 13.18359375 C9.90181161 16.94391772 11.03647072 18.11141594 13.3125 21.0625 C15.51960222 23.96799562 17.48599829 26.67227036 19 30 C14.27104394 30.32992717 11.8329113 29.78593082 8 27 C6.3046875 24.5546875 6.3046875 24.5546875 4.875 21.875 C2.90997175 17.84670597 2.90997175 17.84670597 -1 16 C-1.02685095 13.52076199 -1.04676547 11.0418116 -1.0625 8.5625 C-1.07506836 7.50192383 -1.07506836 7.50192383 -1.08789062 6.41992188 C-1.09653588 4.61306441 -1.05220011 2.80612397 -1 1 C-0.67 0.67 -0.34 0.34 0 0 Z " fill="#171717" transform="translate(283,287)"/>
<path d="M0 0 C2.9375 0.25 2.9375 0.25 6 1 C8 4 8 4 7.5625 7.875 C7.34779321 14.10149686 11.26298804 18.36749315 14.8359375 23.08203125 C16.53576142 25.37403209 17.85738552 27.40714406 19 30 C14.27104394 30.32992717 11.8329113 29.78593082 8 27 C6.3046875 24.5546875 6.3046875 24.5546875 4.875 21.875 C2.90997175 17.84670597 2.90997175 17.84670597 -1 16 C-1.02685095 13.52076199 -1.04676547 11.0418116 -1.0625 8.5625 C-1.07506836 7.50192383 -1.07506836 7.50192383 -1.08789062 6.41992188 C-1.09653588 4.61306441 -1.05220011 2.80612397 -1 1 C-0.67 0.67 -0.34 0.34 0 0 Z " fill="#131313" transform="translate(125,287)"/>
<path d="M0 0 C0 0.66 0 1.32 0 2 C19.8 2 39.6 2 60 2 C60 2.33 60 2.66 60 3 C58.78850533 3.01213028 58.78850533 3.01213028 57.55253601 3.02450562 C49.94508016 3.10241146 42.33781722 3.18968977 34.73059368 3.28752708 C30.81953677 3.33749615 26.90850694 3.383826 22.99731445 3.421875 C19.22355715 3.45872031 15.45002617 3.50507793 11.67646217 3.55806351 C10.23599017 3.57661153 8.79546965 3.59171801 7.35492516 3.60334396 C5.33897807 3.62019865 3.32315556 3.65036894 1.30737305 3.68115234 C0.15931686 3.69447601 -0.98873932 3.70779968 -2.17158508 3.7215271 C-5.20390666 3.79612833 -5.20390666 3.79612833 -8 6 C-8.99455909 8.98367726 -9.19559632 11.2004192 -9.31640625 14.32421875 C-9.35830078 15.35224609 -9.40019531 16.38027344 -9.44335938 17.43945312 C-9.48267578 18.51130859 -9.52199219 19.58316406 -9.5625 20.6875 C-9.60568359 21.77095703 -9.64886719 22.85441406 -9.69335938 23.97070312 C-9.79946838 26.64700791 -9.90152361 29.32340526 -10 32 C-8.68 32.33 -7.36 32.66 -6 33 C-7.98 33 -9.96 33 -12 33 C-12.20388352 28.62569036 -12.32783606 24.25260535 -12.4375 19.875 C-12.49615234 18.6375 -12.55480469 17.4 -12.61523438 16.125 C-12.78398973 7.15685818 -12.78398973 7.15685818 -10.51391602 3.80712891 C-7.20337019 0.86509831 -4.5842924 -0.83350771 0 0 Z " fill="#ECAB41" transform="translate(196,210)"/>
<path d="M0 0 C7.4422658 -0.36601307 7.4422658 -0.36601307 10 1.3125 C11 3 11 3 11 6 C11.66 6 12.32 6 13 6 C12.67 10.29 12.34 14.58 12 19 C11.67 19 11.34 19 11 19 C11 15.37 11 11.74 11 8 C10.34 8 9.68 8 9 8 C8.855625 8.639375 8.71125 9.27875 8.5625 9.9375 C8 12 8 12 7 13 C4.66702567 13.04092937 2.33294775 13.04241723 0 13 C0 8.71 0 4.42 0 0 Z " fill="#ECECEC" transform="translate(60,287)"/>
<path d="M0 0 C0.33 0 0.66 0 1 0 C1.4726477 8.19256018 1.4726477 8.19256018 -0.5 11.5625 C-0.995 12.036875 -1.49 12.51125 -2 13 C-2 12.01 -2 11.02 -2 10 C-2.515625 10.66 -3.03125 11.32 -3.5625 12 C-6.79995755 14.65637543 -8.92552281 14.31342132 -13 14 C-13 10.04 -13 6.08 -13 2 C-5.5577342 1.63398693 -5.5577342 1.63398693 -3 3.3125 C-2 5 -2 5 -2 8 C-1.34 8 -0.68 8 0 8 C0 5.36 0 2.72 0 0 Z " fill="#EFEFEF" transform="translate(328,285)"/>
<path d="M0 0 C2 3 2 3 1.75 6.0625 C1 9 1 9 -1 11 C-4.10347254 11.33015665 -6.15781176 11.50531294 -8.875 9.875 C-10.52854531 7.11909116 -10.39365568 5.14924548 -10 2 C-7.65569181 -2.27491494 -4.20074737 -1.06928115 0 0 Z " fill="#EBEBEB" transform="translate(132,327)"/>
<path d="M0 0 C2.1519437 3.22791555 2.20086443 4.28400809 2 8 C2.57993713 7.99555878 3.15987427 7.99111755 3.75738525 7.98654175 C9.79184506 7.94230431 15.82625882 7.91213184 21.86083984 7.89013672 C24.11313752 7.88007747 26.36542214 7.86642854 28.61767578 7.84912109 C31.85452498 7.82486969 35.09120155 7.8135161 38.328125 7.8046875 C39.33554749 7.79436493 40.34296997 7.78404236 41.38092041 7.77340698 C42.32159363 7.77325592 43.26226685 7.77310486 44.23144531 7.77294922 C45.05751282 7.768508 45.88358032 7.76406677 46.73468018 7.75949097 C49 8 49 8 53 10 C35.51 10 18.02 10 0 10 C0 6.7 0 3.4 0 0 Z " fill="#795330" transform="translate(137,256)"/>
<path d="M0 0 C3.96 0 7.92 0 12 0 C12 0.66 12 1.32 12 2 C11.01 2.33 10.02 2.66 9 3 C8.9906543 3.56920166 8.98130859 4.13840332 8.97167969 4.72485352 C8.91753831 7.33823653 8.83398255 9.94991242 8.75 12.5625 C8.72873047 13.90538086 8.72873047 13.90538086 8.70703125 15.27539062 C8.48550092 21.32316873 7.43240657 24.99555122 4 30 C2.68 29.34 1.36 28.68 0 28 C0.99 27.67 1.98 27.34 3 27 C4.11662325 24.10822183 4.11735344 21.30713697 4.09765625 18.234375 C4.09443359 17.34492188 4.09121094 16.45546875 4.08789062 15.5390625 C4.07951172 14.61867188 4.07113281 13.69828125 4.0625 12.75 C4.05798828 11.81414062 4.05347656 10.87828125 4.04882812 9.9140625 C4.03706918 7.60930959 4.02063426 5.30468773 4 3 C2.68 2.67 1.36 2.34 0 2 C0 1.34 0 0.68 0 0 Z " fill="#121212" transform="translate(257,285)"/>
<path d="M0 0 C2.9375 0.25 2.9375 0.25 6 1 C8 4 8 4 7.8125 7.5 C7 11 7 11 5.75 12.9375 C3.43218999 14.34474179 1.66668177 14.07407449 -1 14 C-1.02685938 11.85423363 -1.04633088 9.70837355 -1.0625 7.5625 C-1.07410156 6.36753906 -1.08570312 5.17257812 -1.09765625 3.94140625 C-1 1 -1 1 0 0 Z " fill="#E9E9E9" transform="translate(125,287)"/>
<path d="M0 0 C5.71428571 0.71428571 5.71428571 0.71428571 7 2 C7.203125 3.9609375 7.203125 3.9609375 7.25 6.375 C7.28867187 7.56222656 7.28867187 7.56222656 7.328125 8.7734375 C7 11 7 11 5.796875 12.7890625 C3.43542186 14.38047657 1.78825565 14.22607478 -1 14 C-1.02685938 11.85423363 -1.04633088 9.70837355 -1.0625 7.5625 C-1.07410156 6.36753906 -1.08570313 5.17257812 -1.09765625 3.94140625 C-1 1 -1 1 0 0 Z " fill="#EEEEEE" transform="translate(283,287)"/>
<path d="M0 0 C0.33 0 0.66 0 1 0 C1 4.95 1 9.9 1 15 C1.99 15 2.98 15 4 15 C4.33 14.34 4.66 13.68 5 13 C5 18.61 5 24.22 5 30 C3.02 30 1.04 30 -1 30 C-0.67 20.1 -0.34 10.2 0 0 Z " fill="#643304" transform="translate(128,234)"/>
<path d="M0 0 C1.65 0 3.3 0 5 0 C4.67 1.65 4.34 3.3 4 5 C5.32 5 6.64 5 8 5 C7.67 3.35 7.34 1.7 7 0 C8.65 0 10.3 0 12 0 C12 3.96 12 7.92 12 12 C10.35 12 8.7 12 7 12 C7.33 10.35 7.66 8.7 8 7 C6.68 7 5.36 7 4 7 C4.33 8.65 4.66 10.3 5 12 C3.35 12 1.7 12 0 12 C0 8.04 0 4.08 0 0 Z " fill="#4E4E4E" transform="translate(223,326)"/>
<path d="M0 0 C0.66 0.99 1.32 1.98 2 3 C2.66 3.33 3.32 3.66 4 4 C4 10.27 4 16.54 4 23 C5.32 23.66 6.64 24.32 8 25 C8 25.66 8 26.32 8 27 C4.04 27 0.08 27 -4 27 C-3.505 25.515 -3.505 25.515 -3 24 C-2.34 23.67 -1.68 23.34 -1 23 C-0.67 15.41 -0.34 7.82 0 0 Z " fill="#313131" transform="translate(150,290)"/>
<path d="M0 0 C3.96 0 7.92 0 12 0 C12 0.66 12 1.32 12 2 C11.01 2.33 10.02 2.66 9 3 C8.67 12.57 8.34 22.14 8 32 C7.67 32 7.34 32 7 32 C6.95101562 31.21753906 6.90203125 30.43507813 6.8515625 29.62890625 C6.77679688 28.61699219 6.70203125 27.60507812 6.625 26.5625 C6.52058594 25.04849609 6.52058594 25.04849609 6.4140625 23.50390625 C6.27742187 22.67761719 6.14078125 21.85132813 6 21 C5.34 20.67 4.68 20.34 4 20 C4.33 14.39 4.66 8.78 5 3 C3.35 2.67 1.7 2.34 0 2 C0 1.34 0 0.68 0 0 Z " fill="#2D2D2D" transform="translate(168,285)"/>
<path d="M0 0 C3.375 -0.125 3.375 -0.125 7 0 C7.66 0.66 8.32 1.32 9 2 C8.835 2.94875 8.67 3.8975 8.5 4.875 C7.96700496 8.20621901 8.20060177 9.24797917 10 12 C8.125 11.6875 8.125 11.6875 6 11 C5.34 10.01 4.68 9.02 4 8 C4 9.32 4 10.64 4 12 C2.35 12 0.7 12 -1 12 C-0.34 11.67 0.32 11.34 1 11 C0.67 7.37 0.34 3.74 0 0 Z " fill="#545454" transform="translate(266,326)"/>
<path d="M0 0 C0.99 0 1.98 0 3 0 C2.01 2.97 1.02 5.94 0 9 C-16.5 9 -33 9 -50 9 C-50 7.35 -50 5.7 -50 4 C-49.01 4.495 -49.01 4.495 -48 5 C-48 5.99 -48 6.98 -48 8 C-32.49 8 -16.98 8 -1 8 C-0.67 5.36 -0.34 2.72 0 0 Z " fill="#FEF3D8" transform="translate(249,201)"/>
<path d="M0 0 C0.99 0.33 1.98 0.66 3 1 C2.67854004 1.54817383 2.35708008 2.09634766 2.02587891 2.66113281 C0.83099217 5.38531533 0.68485993 7.4542022 0.5859375 10.421875 C0.54726562 11.44667969 0.50859375 12.47148437 0.46875 13.52734375 C0.4378125 14.59082031 0.406875 15.65429688 0.375 16.75 C0.33632812 17.82894531 0.29765625 18.90789062 0.2578125 20.01953125 C0.16365369 22.67951775 0.07802613 25.3394994 0 28 C1.32 28.33 2.64 28.66 4 29 C2.02 29 0.04 29 -2 29 C-2.0578304 24.54172074 -2.09353855 20.0835372 -2.125 15.625 C-2.14175781 14.35398438 -2.15851563 13.08296875 -2.17578125 11.7734375 C-2.18222656 10.56171875 -2.18867188 9.35 -2.1953125 8.1015625 C-2.21102295 6.42054443 -2.21102295 6.42054443 -2.22705078 4.70556641 C-2 2 -2 2 0 0 Z " fill="#EC9C17" transform="translate(186,214)"/>
<path d="M0 0 C0.33 0 0.66 0 1 0 C1.24965165 10.554717 0.67901457 20.56612375 -1 31 C-1.66 31 -2.32 31 -3 31 C-3.16543875 20.30162761 -2.51801986 10.40781543 0 0 Z " fill="#F0E7DB" transform="translate(113,235)"/>
<path d="M0 0 C0.66 0 1.32 0 2 0 C1.34 2.97 0.68 5.94 0 9 C-8.25 9 -16.5 9 -25 9 C-25 8.67 -25 8.34 -25 8 C-19.06 7.505 -19.06 7.505 -13 7 C-13 6.67 -13 6.34 -13 6 C-12.39671875 5.98582031 -11.7934375 5.97164063 -11.171875 5.95703125 C-5.73919569 5.71654797 -5.73919569 5.71654797 -1.5625 2.4375 C-1.046875 1.633125 -0.53125 0.82875 0 0 Z " fill="#424242" transform="translate(329,308)"/>
<path d="M0 0 C2.97 0 5.94 0 9 0 C9 0.99 9 1.98 9 3 C8.34 3 7.68 3 7 3 C7 2.34 7 1.68 7 1 C6.01 1 5.02 1 4 1 C4 2.32 4 3.64 4 5 C5.32 4.67 6.64 4.34 8 4 C7.67 5.32 7.34 6.64 7 8 C6.01 7.67 5.02 7.34 4 7 C4 8.32 4 9.64 4 11 C5.65 10.67 7.3 10.34 9 10 C9 10.66 9 11.32 9 12 C6.03 12 3.06 12 0 12 C0 8.04 0 4.08 0 0 Z " fill="#525252" transform="translate(286,326)"/>
<path d="M0 0 C2.64 0 5.28 0 8 0 C7.67 0.99 7.34 1.98 7 3 C7 2.34 7 1.68 7 1 C6.01 1 5.02 1 4 1 C4 2.32 4 3.64 4 5 C5.32 4.67 6.64 4.34 8 4 C8 5.32 8 6.64 8 8 C6.68 7.67 5.36 7.34 4 7 C4 8.32 4 9.64 4 11 C5.32 11 6.64 11 8 11 C8.33 10.34 8.66 9.68 9 9 C9 9.99 9 10.98 9 12 C6.03 12 3.06 12 0 12 C0 8.04 0 4.08 0 0 Z " fill="#424242" transform="translate(246,326)"/>
<path d="M0 0 C1.32 0 2.64 0 4 0 C5.484375 1.53125 5.484375 1.53125 6.75 3.5 C7.39195312 4.47453125 7.39195312 4.47453125 8.046875 5.46875 C8.36140625 5.9740625 8.6759375 6.479375 9 7 C9.33 5.02 9.66 3.04 10 1 C9.34 0.67 8.68 0.34 8 0 C9.65 0 11.3 0 13 0 C12.67 0.66 12.34 1.32 12 2 C11.77377919 3.70363822 11.59111527 5.41328701 11.4375 7.125 C11.35371094 8.03507812 11.26992187 8.94515625 11.18359375 9.8828125 C11.12300781 10.58148438 11.06242188 11.28015625 11 12 C5.125 7.25 5.125 7.25 4 5 C4 7.31 4 9.62 4 12 C2.68 11.67 1.36 11.34 0 11 C0.66 11 1.32 11 2 11 C1.85892253 9.54119891 1.71197585 8.08296449 1.5625 6.625 C1.48128906 5.81289063 1.40007812 5.00078125 1.31640625 4.1640625 C1.10909886 1.95727195 1.10909886 1.95727195 0 0 Z " fill="#424242" transform="translate(187,326)"/>
<path d="M0 0 C0.33 0 0.66 0 1 0 C1 9.24 1 18.48 1 28 C4.63 28 8.26 28 12 28 C12.99 28.66 13.98 29.32 15 30 C9.72 30 4.44 30 -1 30 C-1.33 29.01 -1.66 28.02 -2 27 C-1.34 27 -0.68 27 0 27 C0 18.09 0 9.18 0 0 Z " fill="#F19B17" transform="translate(179,172)"/>
<path d="M0 0 C2 3 2 3 1.75 6.0625 C1 9 1 9 -1 11 C-4.10347254 11.33015665 -6.15781176 11.50531294 -8.875 9.875 C-10.52854531 7.11909116 -10.39365568 5.14924548 -10 2 C-7.65569181 -2.27491494 -4.20074737 -1.06928115 0 0 Z M-6 0 C-8.31563087 1.88500271 -8.31563087 1.88500271 -8.25 5 C-8.31563087 8.11499729 -8.31563087 8.11499729 -6 10 C-3.39719432 9.67958603 -3.39719432 9.67958603 -1 9 C-0.83322718 5.58343976 -0.83322718 5.58343976 -1 2 C-1.66 1.34 -2.32 0.68 -3 0 C-3.99 0 -4.98 0 -6 0 Z " fill="#313131" transform="translate(132,327)"/>
<path d="M0 0 C0.99 0 1.98 0 3 0 C4.19445794 5.39718034 3.92044183 10.41124431 3.5625 15.875 C3.51029297 16.75414062 3.45808594 17.63328125 3.40429688 18.5390625 C3.27552439 20.69307499 3.13858537 22.84659659 3 25 C2.67 25 2.34 25 2 25 C1.66274935 21.95872183 1.33007668 18.91705809 1 15.875 C0.90460938 15.0190625 0.80921875 14.163125 0.7109375 13.28125 C0.23154791 8.82977526 -0.11765458 4.48558075 0 0 Z " fill="#ECE3D4" transform="translate(132,237)"/>
<path d="M0 0 C0.33 0 0.66 0 1 0 C1.02720824 2.68756955 1.0469388 5.37485798 1.0625 8.0625 C1.07087891 8.81466797 1.07925781 9.56683594 1.08789062 10.34179688 C1.10808341 15.00633118 0.77595959 19.39923173 0 24 C-0.99 24.33 -1.98 24.66 -3 25 C-2.60271115 16.47919963 -2.21772491 8.27950633 0 0 Z " fill="#E9DED2" transform="translate(115,217)"/>
<path d="M0 0 C-0.33 0.99 -0.66 1.98 -1 3 C-1.804375 2.814375 -2.60875 2.62875 -3.4375 2.4375 C-4.7059375 2.2209375 -4.7059375 2.2209375 -6 2 C-7.35618499 3.12534105 -7.35618499 3.12534105 -7.0625 6.0625 C-7.041875 7.031875 -7.02125 8.00125 -7 9 C-4.525 9.99 -4.525 9.99 -2 11 C-2.66 9.35 -3.32 7.7 -4 6 C-2.35 6 -0.7 6 1 6 C0.67 7.98 0.34 9.96 0 12 C-1.27875 12.061875 -2.5575 12.12375 -3.875 12.1875 C-4.59429687 12.22230469 -5.31359375 12.25710938 -6.0546875 12.29296875 C-6.69664062 12.19628906 -7.33859375 12.09960938 -8 12 C-10.31282587 8.53076119 -10.42478586 7.07794425 -10 3 C-7.7109263 -1.03954182 -4.21983723 -0.23885871 0 0 Z " fill="#2F2F2F" transform="translate(155,326)"/>
<path d="M0 0 C0.99 0.33 1.98 0.66 3 1 C3 9.25 3 17.5 3 26 C2.34 26.33 1.68 26.66 1 27 C0.67 18.09 0.34 9.18 0 0 Z " fill="#C2C2C2" transform="translate(115,287)"/>
<path d="M0 0 C0.66 0.33 1.32 0.66 2 1 C3.81171098 1.15306901 5.6283794 1.24946661 7.4453125 1.31640625 C8.52167969 1.35830078 9.59804688 1.40019531 10.70703125 1.44335938 C12.39892578 1.50233398 12.39892578 1.50233398 14.125 1.5625 C15.26066406 1.60568359 16.39632813 1.64886719 17.56640625 1.69335938 C20.37747768 1.7996604 23.18863945 1.90169405 26 2 C26 2.33 26 2.66 26 3 C24.87972412 3.03758423 24.87972412 3.03758423 23.73681641 3.07592773 C20.36602733 3.19168213 16.99553217 3.31450128 13.625 3.4375 C12.449375 3.47681641 11.27375 3.51613281 10.0625 3.55664062 C8.94101562 3.59853516 7.81953125 3.64042969 6.6640625 3.68359375 C5.10872803 3.73858032 5.10872803 3.73858032 3.52197266 3.79467773 C1.00574834 3.84164223 1.00574834 3.84164223 -1 5 C-1.65555119 7.52733235 -1.65555119 7.52733235 -2 10 C-2.99 10 -3.98 10 -5 10 C-4.56802365 5.2482602 -3.67230705 3.07999946 0 0 Z " fill="#F1B655" transform="translate(254,200)"/>
<path d="M0 0 C2.62655933 0.35494045 4.57968261 0.72461964 6.8125 2.1875 C8.51995571 4.79361661 8.20267097 6.9599355 8 10 C7.34 10 6.68 10 6 10 C5.5359375 8.7934375 5.5359375 8.7934375 5.0625 7.5625 C4.23664655 5.10919595 4.23664655 5.10919595 3 4 C1.22130274 3.84235595 -0.56318476 3.74899323 -2.34765625 3.68359375 C-3.42724609 3.64169922 -4.50683594 3.59980469 -5.61914062 3.55664062 C-7.32360352 3.49766602 -7.32360352 3.49766602 -9.0625 3.4375 C-10.20267578 3.39431641 -11.34285156 3.35113281 -12.51757812 3.30664062 C-15.34492195 3.20017161 -18.17235738 3.09815793 -21 3 C-21 2.67 -21 2.34 -21 2 C-10.605 1.505 -10.605 1.505 0 1 C0 0.67 0 0.34 0 0 Z " fill="#F2B350" transform="translate(191,200)"/>
<path d="M0 0 C3.96 0 7.92 0 12 0 C12 0.66 12 1.32 12 2 C11.03320312 2.24363281 11.03320312 2.24363281 10.046875 2.4921875 C7.5663746 3.95214403 7.5663746 3.95214403 7.390625 7.6953125 C7.32414708 9.17112237 7.27806121 10.64796017 7.25 12.125 C7.22035156 12.87910156 7.19070312 13.63320313 7.16015625 14.41015625 C7.08942068 16.27285953 7.04245017 18.13643755 7 20 C6.67 20 6.34 20 6 20 C5.93941406 19.02417969 5.87882812 18.04835938 5.81640625 17.04296875 C5.73261719 15.77066406 5.64882812 14.49835938 5.5625 13.1875 C5.48128906 11.92292969 5.40007812 10.65835937 5.31640625 9.35546875 C5.12815453 6.00818107 5.12815453 6.00818107 4 3 C1.98491642 2.26676204 1.98491642 2.26676204 0 2 C0 1.34 0 0.68 0 0 Z " fill="#0D0D0D" transform="translate(99,285)"/>
<path d="M0 0 C0.66 0 1.32 0 2 0 C2 3.63 2 7.26 2 11 C1.34 11 0.68 11 0 11 C-0.33 9.68 -0.66 8.36 -1 7 C-3.64 7 -6.28 7 -9 7 C-9 6.01 -9 5.02 -9 4 C-7.88625 3.896875 -6.7725 3.79375 -5.625 3.6875 C-4.42875 3.460625 -3.2325 3.23375 -2 3 C-1.34 2.01 -0.68 1.02 0 0 Z " fill="#2B2B2B" transform="translate(324,295)"/>
<path d="M0 0 C7.59 0 15.18 0 23 0 C23 2.64 23 5.28 23 8 C22.34 8 21.68 8 21 8 C18 3.61538462 18 3.61538462 18 1 C16.86820312 1.0721875 15.73640625 1.144375 14.5703125 1.21875 C13.08854374 1.31253283 11.6067728 1.40628104 10.125 1.5 C9.00544922 1.57154297 9.00544922 1.57154297 7.86328125 1.64453125 C2.2265625 2 2.2265625 2 0 2 C0 1.34 0 0.68 0 0 Z " fill="#161616" transform="translate(305,285)"/>
<path d="M0 0 C0.99 0 1.98 0 3 0 C3.33970765 2.49927769 3.67188032 4.99919595 4 7.5 C4.09539062 8.19609375 4.19078125 8.8921875 4.2890625 9.609375 C4.9161622 14.44700129 5.08789528 19.12181196 5 24 C1.55267003 17.84405362 0.64781591 11.92628715 1 5 C1.33 4.34 1.66 3.68 2 3 C1.34 3 0.68 3 0 3 C0 2.01 0 1.02 0 0 Z " fill="#744B29" transform="translate(126,205)"/>
<path d="M0 0 C0.66 0 1.32 0 2 0 C2 0.66 2 1.32 2 2 C1.34 2 0.68 2 0 2 C0 2.99 0 3.98 0 5 C0.99 5.33 1.98 5.66 3 6 C2.01 6.33 1.02 6.66 0 7 C-0.33 16.57 -0.66 26.14 -1 36 C-1.33 36 -1.66 36 -2 36 C-2.04944066 31.35524041 -2.08573863 26.71063404 -2.10986328 22.06567383 C-2.11992041 20.48556856 -2.13356785 18.9054819 -2.15087891 17.32543945 C-2.17514022 15.0541525 -2.18648582 12.78311164 -2.1953125 10.51171875 C-2.20563507 9.80536789 -2.21595764 9.09901703 -2.22659302 8.3712616 C-2.22743775 4.67802208 -2.10720523 3.16080784 0 0 Z " fill="#FEF4D2" transform="translate(168,203)"/>
<path d="M0 0 C0.66 0.33 1.32 0.66 2 1 C0 4 0 4 -3 5 C-5.45142286 7.32570887 -7.75530909 9.72472273 -10 12.25 C-12.33052916 14.28921301 -13.95998621 14.66222069 -17 15 C-13.41157029 11.30504919 -9.66828129 7.95241783 -5.6875 4.6875 C-5.13771484 4.23310547 -4.58792969 3.77871094 -4.02148438 3.31054688 C-2.68287784 2.20474148 -1.34170769 1.10204061 0 0 Z " fill="#F1E6DA" transform="translate(172,72)"/>
<path d="M0 0 C0.33 0 0.66 0 1 0 C1.10867663 3.02181414 1.18762754 6.03966327 1.25 9.0625 C1.30027344 10.33383789 1.30027344 10.33383789 1.3515625 11.63085938 C1.44447793 17.64713339 0.42213997 21.03520245 -3 26 C-4.32 25.34 -5.64 24.68 -7 24 C-6.01 23.67 -5.02 23.34 -4 23 C-2.84478498 20.52869082 -2.84478498 20.52869082 -2 18 C-1.67 17.67 -1.34 17.34 -1 17 C-0.76298761 14.14122091 -0.57780818 11.30116703 -0.4375 8.4375 C-0.37272461 7.22803711 -0.37272461 7.22803711 -0.30664062 5.99414062 C-0.20024738 3.99631195 -0.09959112 1.9981793 0 0 Z " fill="#3E3E3E" transform="translate(264,289)"/>
<path d="M0 0 C0.99 0.33 1.98 0.66 3 1 C2.67 1.66 2.34 2.32 2 3 C1.91332745 5.62627133 1.88439865 8.22562483 1.90234375 10.8515625 C1.9037587 11.62559418 1.90517365 12.39962585 1.90663147 13.19711304 C1.91223597 15.67311442 1.92478917 18.14902588 1.9375 20.625 C1.94251442 22.30208203 1.94707743 23.97916547 1.95117188 25.65625 C1.96220685 29.77086806 1.97947446 33.88541878 2 38 C1.34 38 0.68 38 0 38 C0 25.46 0 12.92 0 0 Z " fill="#F8ECE1" transform="translate(191,60)"/>
<path d="M0 0 C0.33 0 0.66 0 1 0 C1.05791844 3.12492251 1.09356746 6.24970766 1.125 9.375 C1.14175781 10.26445312 1.15851563 11.15390625 1.17578125 12.0703125 C1.18222656 12.92109375 1.18867187 13.771875 1.1953125 14.6484375 C1.20578613 15.43395996 1.21625977 16.21948242 1.22705078 17.02880859 C1 19 1 19 -1 21 C-2.64176774 17.71646451 -2.18454039 14.10480362 -2.1875 10.5 C-2.19974609 9.71496094 -2.21199219 8.92992187 -2.22460938 8.12109375 C-2.22986254 6.07936274 -2.1222018 4.03807749 -2 2 C-1.34 1.34 -0.68 0.68 0 0 Z " fill="#333333" transform="translate(106,289)"/>
<path d="M0 0 C0.66 0 1.32 0 2 0 C2 3.63 2 7.26 2 11 C1.34 11 0.68 11 0 11 C-0.66 10.01 -1.32 9.02 -2 8 C-5.56769552 7.26393501 -5.56769552 7.26393501 -9 7 C-9 6.67 -9 6.34 -9 6 C-7.88625 5.7525 -6.7725 5.505 -5.625 5.25 C-1.95384802 4.38994661 -1.95384802 4.38994661 -0.5625 1.875 C-0.376875 1.25625 -0.19125 0.6375 0 0 Z " fill="#1D1D1D" transform="translate(69,295)"/>
<path d="M0 0 C0.33 0 0.66 0 1 0 C2.50974035 7.09038772 3.28307925 13.75002578 3 21 C2.34 21 1.68 21 1 21 C0.07907719 16.34462644 -0.12205997 11.85314567 -0.0625 7.125 C-0.05798828 6.43664062 -0.05347656 5.74828125 -0.04882812 5.0390625 C-0.03716336 3.35933665 -0.01923271 1.67965625 0 0 Z " fill="#F7F1E8" transform="translate(131,216)"/>
<path d="M0 0 C0.33 3.63 0.66 7.26 1 11 C-0.98 11 -2.96 11 -5 11 C-5 9.68 -5 8.36 -5 7 C-3.68 7.33 -2.36 7.66 -1 8 C-1 6.68 -1 5.36 -1 4 C-2.32 4.33 -3.64 4.66 -5 5 C-5 3.68 -5 2.36 -5 1 C-1.125 0 -1.125 0 0 0 Z " fill="#E7E7E7" transform="translate(255,326)"/>
<path d="M0 0 C0.33 0 0.66 0 1 0 C1 1.65 1 3.3 1 5 C1.99 5 2.98 5 4 5 C4 3.68 4 2.36 4 1 C4.99 1 5.98 1 7 1 C7 1.99 7 2.98 7 4 C7.66 4 8.32 4 9 4 C8.67 5.32 8.34 6.64 8 8 C3.545 7.01 3.545 7.01 -1 6 C-1.042721 4.33388095 -1.04063832 2.66617115 -1 1 C-0.67 0.67 -0.34 0.34 0 0 Z " fill="#FBF2D9" transform="translate(253,204)"/>
<path d="M0 0 C3.96 0 7.92 0 12 0 C12 0.33 12 0.66 12 1 C10.02 1 8.04 1 6 1 C6.309375 1.928125 6.309375 1.928125 6.625 2.875 C6.74875 3.57625 6.8725 4.2775 7 5 C6.34 5.66 5.68 6.32 5 7 C5 6.34 5 5.68 5 5 C3.35 5 1.7 5 0 5 C0 3.35 0 1.7 0 0 Z " fill="#643A13" transform="translate(126,198)"/>
<path d="M0 0 C0.33 0 0.66 0 1 0 C1.33 4.29 1.66 8.58 2 13 C-0.97 13 -3.94 13 -7 13 C-7 10.69 -7 8.38 -7 6 C-6.67 6 -6.34 6 -6 6 C-6 7.65 -6 9.3 -6 11 C-4.02 11 -2.04 11 0 11 C0 7.37 0 3.74 0 0 Z " fill="#6C4824" transform="translate(133,253)"/>
<path d="M0 0 C0.33 0 0.66 0 1 0 C1 4.62 1 9.24 1 14 C-2.63 14 -6.26 14 -10 14 C-8.68 12.68 -7.36 11.36 -6 10 C-6 10.66 -6 11.32 -6 12 C-4.02 12 -2.04 12 0 12 C0 8.04 0 4.08 0 0 Z " fill="#F2AF41" transform="translate(289,229)"/>
<path d="M0 0 C0.66 0 1.32 0 2 0 C2.33 0.99 2.66 1.98 3 3 C4.99665314 4.68538601 4.99665314 4.68538601 7 6 C6.67 7.65 6.34 9.3 6 11 C4.02 11 2.04 11 0 11 C0.33 10.34 0.66 9.68 1 9 C2.98 9.495 2.98 9.495 5 10 C5 9.01 5 8.02 5 7 C4.360625 6.773125 3.72125 6.54625 3.0625 6.3125 C1 5 1 5 0.25 2.375 C0.1675 1.59125 0.085 0.8075 0 0 Z " fill="#343434" transform="translate(85,327)"/>
<path d="M0 0 C0.66 0 1.32 0 2 0 C1.67 0.99 1.34 1.98 1 3 C0.84970012 5.06362991 0.75155552 7.13123915 0.68359375 9.19921875 C0.64169922 10.40771484 0.59980469 11.61621094 0.55664062 12.86132812 C0.51732422 14.12396484 0.47800781 15.38660156 0.4375 16.6875 C0.39431641 17.96173828 0.35113281 19.23597656 0.30664062 20.54882812 C0.2004514 23.69910852 0.09840467 26.84946839 0 30 C-0.33 30 -0.66 30 -1 30 C-1.02465746 25.8882744 -1.04283959 21.77657722 -1.05493164 17.66479492 C-1.0599708 16.26504772 -1.06680216 14.8653058 -1.07543945 13.46557617 C-1.0875232 11.45754223 -1.09269807 9.44947043 -1.09765625 7.44140625 C-1.10289307 6.23170166 -1.10812988 5.02199707 -1.11352539 3.77563477 C-1 1 -1 1 0 0 Z " fill="#F4F4F4" transform="translate(177,287)"/>
<path d="M0 0 C6.27 0 12.54 0 19 0 C18.34 1.32 17.68 2.64 17 4 C14.69 3.67 12.38 3.34 10 3 C10 2.34 10 1.68 10 1 C6.7 1.33 3.4 1.66 0 2 C0 1.34 0 0.68 0 0 Z " fill="#151515" transform="translate(272,285)"/>
<path d="M0 0 C0.66 0 1.32 0 2 0 C5 6.625 5 6.625 5 10 C5.66 10.33 6.32 10.66 7 11 C5.35 11 3.7 11 2 11 C2 10.01 2 9.02 2 8 C0.68 7.67 -0.64 7.34 -2 7 C-1.67 6.34 -1.34 5.68 -1 5 C-0.34 5.33 0.32 5.66 1 6 C0.67 4.02 0.34 2.04 0 0 Z " fill="#313131" transform="translate(171,327)"/>
<path d="M0 0 C0.99 0.99 1.98 1.98 3 3 C2.319375 4.670625 2.319375 4.670625 1.625 6.375 C-0.1782873 11.143883 -1.12719707 15.98908437 -2 21 C-2.33 21 -2.66 21 -3 21 C-2.53752467 13.80729161 -1.74922933 6.9969173 0 0 Z " fill="#66401B" transform="translate(113,174)"/>
<path d="M0 0 C2.53835868 2.58403608 2.99485632 3.76068358 3.07421875 7.453125 C2.94660156 8.70609375 2.81898437 9.9590625 2.6875 11.25 C2.50767578 13.14492187 2.50767578 13.14492187 2.32421875 15.078125 C2.21722656 16.04234375 2.11023438 17.0065625 2 18 C-0.53835868 15.41596392 -0.99485632 14.23931642 -1.07421875 10.546875 C-0.94660156 9.29390625 -0.81898437 8.0409375 -0.6875 6.75 C-0.56761719 5.48671875 -0.44773437 4.2234375 -0.32421875 2.921875 C-0.21722656 1.95765625 -0.11023438 0.9934375 0 0 Z " fill="#DCCDC0" transform="translate(115,206)"/>
<path d="M0 0 C0.5625 1.9375 0.5625 1.9375 1 4 C0.67 4.33 0.34 4.66 0 5 C-0.23287008 6.68183948 -0.41264166 8.3712416 -0.5625 10.0625 C-0.68818359 11.44115234 -0.68818359 11.44115234 -0.81640625 12.84765625 C-0.87699219 13.55792969 -0.93757813 14.26820313 -1 15 C-1.33 15 -1.66 15 -2 15 C-2.95261487 10.23692563 -3.08333357 5.8333472 -3 1 C-2.01 0.67 -1.02 0.34 0 0 Z " fill="#703C12" transform="translate(120,213)"/>
<path d="M0 0 C0.66 0.33 1.32 0.66 2 1 C1.67 1.66 1.34 2.32 1 3 C0.34 3 -0.32 3 -1 3 C-1.226875 3.598125 -1.45375 4.19625 -1.6875 4.8125 C-3.37304841 7.62174735 -5.05002192 8.63293699 -8 10 C-8.99 9.67 -9.98 9.34 -11 9 C-9.93458984 8.15115234 -9.93458984 8.15115234 -8.84765625 7.28515625 C-7.92855469 6.55167969 -7.00945312 5.81820312 -6.0625 5.0625 C-5.14597656 4.33160156 -4.22945313 3.60070312 -3.28515625 2.84765625 C-1.59148731 1.48061289 -1.59148731 1.48061289 0 0 Z " fill="#6B4622" transform="translate(125,88)"/>
<path d="M0 0 C0 2.97 0 5.94 0 9 C-0.66 9 -1.32 9 -2 9 C-3.6875 6.6875 -3.6875 6.6875 -5 4 C-4.67 3.01 -4.34 2.02 -4 1 C-2 0 -2 0 0 0 Z " fill="#151515" transform="translate(231,284)"/>
<path d="M0 0 C0 3 0 3 -2 6 C-3.33076989 6.34342449 -4.66431979 6.67619874 -6 7 C-7.73026102 8.47890069 -7.73026102 8.47890069 -9 10 C-9.66 9.67 -10.32 9.34 -11 9 C-9.54405245 7.68485396 -8.08516421 6.37296283 -6.625 5.0625 C-5.81289062 4.33160156 -5.00078125 3.60070312 -4.1640625 2.84765625 C-2 1 -2 1 0 0 Z " fill="#F2E8DC" transform="translate(185,62)"/>
<path d="M0 0 C0.33 0 0.66 0 1 0 C1.33 5.61 1.66 11.22 2 17 C1.01 16.67 0.02 16.34 -1 16 C-0.67 10.72 -0.34 5.44 0 0 Z " fill="#DDCCBB" transform="translate(131,205)"/>
<path d="M0 0 C0.66 0.33 1.32 0.66 2 1 C0.1875 3.5 0.1875 3.5 -2 6 C-2.99 6 -3.98 6 -5 6 C-5.66 7.32 -6.32 8.64 -7 10 C-7.99 9.67 -8.98 9.34 -10 9 C-6.85281112 5.7317654 -3.50647501 2.8689341 0 0 Z " fill="#F2E9DF" transform="translate(117,116)"/>
<path d="M0 0 C1.65 0 3.3 0 5 0 C5 1.32 5 2.64 5 4 C2.69 4 0.38 4 -2 4 C-1.34 2.68 -0.68 1.36 0 0 Z " fill="#B5B5B5" transform="translate(168,334)"/>
<path d="M0 0 C1.9375 0.8125 1.9375 0.8125 4 2 C4.33 2.99 4.66 3.98 5 5 C3.02 5 1.04 5 -1 5 C-1 1 -1 1 0 0 Z " fill="#1E1E1E" transform="translate(139,312)"/>
<path d="M0 0 C0.33 0 0.66 0 1 0 C0.67 6.27 0.34 12.54 0 19 C-0.33 19 -0.66 19 -1 19 C-1.33 14.71 -1.66 10.42 -2 6 C-1.34 6 -0.68 6 0 6 C0 4.02 0 2.04 0 0 Z " fill="#D4C3B2" transform="translate(135,243)"/>
<path d="M0 0 C1.65 0 3.3 0 5 0 C4.67 1.98 4.34 3.96 4 6 C1.36 6 -1.28 6 -4 6 C-3.34 5.34 -2.68 4.68 -2 4 C0.125 4.375 0.125 4.375 2 5 C1.34 3.35 0.68 1.7 0 0 Z " fill="#515151" transform="translate(151,332)"/>
<path d="M0 0 C4.95 0 9.9 0 15 0 C15 0.66 15 1.32 15 2 C13.0625 2.5625 13.0625 2.5625 11 3 C10.67 2.67 10.34 2.34 10 2 C8.31391034 1.92794489 6.62499341 1.91613932 4.9375 1.9375 C4.01839844 1.94652344 3.09929687 1.95554687 2.15234375 1.96484375 C1.44207031 1.97644531 0.73179687 1.98804688 0 2 C0 1.34 0 0.68 0 0 Z " fill="#171717" transform="translate(235,285)"/>
<path d="M0 0 C-1.49097658 3.7952131 -3.75700849 5.61042731 -7 8 C-7.66 7.34 -8.32 6.68 -9 6 C-7.8803014 4.99406757 -6.7540588 3.9954151 -5.625 3 C-4.68527344 2.1646875 -4.68527344 2.1646875 -3.7265625 1.3125 C-2 0 -2 0 0 0 Z " fill="#69441F" transform="translate(101,109)"/>
<path d="M0 0 C1.15955441 3.47866322 1 6.35001677 1 10 C1.33 10.99 1.66 11.98 2 13 C-0.6666419 14.33332095 -2.16680303 13.67102033 -5 13 C-3.68 12.34 -2.36 11.68 -1 11 C-1.01160156 10.28972656 -1.02320313 9.57945312 -1.03515625 8.84765625 C-1.04869141 7.46900391 -1.04869141 7.46900391 -1.0625 6.0625 C-1.07410156 5.14597656 -1.08570313 4.22945313 -1.09765625 3.28515625 C-1 1 -1 1 0 0 Z " fill="#ECECEC" transform="translate(235,326)"/>
<path d="M0 0 C-1.46528313 3.86301917 -3.44692439 5.04580842 -7 7 C-7.66 7.66 -8.32 8.32 -9 9 C-9 6 -9 6 -7.5390625 4.39453125 C-6.59160156 3.61142578 -6.59160156 3.61142578 -5.625 2.8125 C-4.68527344 2.01779297 -4.68527344 2.01779297 -3.7265625 1.20703125 C-2 0 -2 0 0 0 Z " fill="#68421A" transform="translate(111,101)"/>
<path d="M0 0 C0 0.66 0 1.32 0 2 C-0.78375 2.61875 -1.5675 3.2375 -2.375 3.875 C-4.86229156 5.88852174 -5.85538266 7.08642859 -7 10 C-7.66 10 -8.32 10 -9 10 C-8.42110619 6.71245489 -7.45171589 5.06327505 -5.0625 2.75 C-4.53785156 2.22921875 -4.01320312 1.7084375 -3.47265625 1.171875 C-2 0 -2 0 0 0 Z " fill="#694622" transform="translate(181,100)"/>
<path d="M0 0 C1.65 0 3.3 0 5 0 C1.88983545 3.28788824 -1.01618925 5.83735988 -5 8 C-4.34 6.35 -3.68 4.7 -3 3 C-2.01 3 -1.02 3 0 3 C0 2.01 0 1.02 0 0 Z " fill="#EDE4D6" transform="translate(131,80)"/>
<path d="M0 0 C2.5 1.3125 2.5 1.3125 5 3 C5 3.99 5 4.98 5 6 C3.02 6 1.04 6 -1 6 C-0.67 4.02 -0.34 2.04 0 0 Z " fill="#D3D3D3" transform="translate(85,331)"/>
<path d="M0 0 C0.33 0 0.66 0 1 0 C1.66 3.96 2.32 7.92 3 12 C2.34 12 1.68 12 1 12 C0.67 12.66 0.34 13.32 0 14 C0 9.38 0 4.76 0 0 Z " fill="#613505" transform="translate(128,219)"/>
<path d="M0 0 C6.625 0.75 6.625 0.75 10 3 C9.67 3.66 9.34 4.32 9 5 C7.68445015 4.5504955 6.37261642 4.09010284 5.0625 3.625 C4.33160156 3.36976563 3.60070312 3.11453125 2.84765625 2.8515625 C1 2 1 2 0 0 Z " fill="#EFA123" transform="translate(252,210)"/>
<path d="M0 0 C0 0.66 0 1.32 0 2 C-3.465 3.485 -3.465 3.485 -7 5 C-7.66 4.34 -8.32 3.68 -9 3 C-5.92807025 0.26939578 -4.09590633 -0.34132553 0 0 Z " fill="#F1A435" transform="translate(196,210)"/>
<path d="M0 0 C0.66 0 1.32 0 2 0 C0.125 4.875 0.125 4.875 -1 6 C-2.66617115 6.04063832 -4.33388095 6.042721 -6 6 C-4 4 -2 2 0 0 Z " fill="#714927" transform="translate(186,39)"/>
<path d="M0 0 C0.33 0.99 0.66 1.98 1 3 C2.32 2.67 3.64 2.34 5 2 C5 3.32 5 4.64 5 6 C3.68 5.67 2.36 5.34 1 5 C0.67 6.32 0.34 7.64 0 9 C0 6.03 0 3.06 0 0 Z " fill="#888888" transform="translate(249,328)"/>
<path d="M0 0 C1.65 0 3.3 0 5 0 C5 1.32 5 2.64 5 4 C3.68 4.33 2.36 4.66 1 5 C0.67 3.35 0.34 1.7 0 0 Z " fill="#B0B0B0" transform="translate(87,326)"/>
<path d="M0 0 C0.33 0 0.66 0 1 0 C1.4726477 8.19256018 1.4726477 8.19256018 -0.5 11.5625 C-0.995 12.036875 -1.49 12.51125 -2 13 C-2 12.01 -2 11.02 -2 10 C-2.99 10.33 -3.98 10.66 -5 11 C-4.67 10.01 -4.34 9.02 -4 8 C-2.68 8 -1.36 8 0 8 C0 5.36 0 2.72 0 0 Z " fill="#E0E0E0" transform="translate(328,285)"/>
<path d="M0 0 C0.66 0 1.32 0 2 0 C1.67 1.98 1.34 3.96 1 6 C0.01 6.33 -0.98 6.66 -2 7 C-2.66 6.34 -3.32 5.68 -4 5 C-3.525625 4.54625 -3.05125 4.0925 -2.5625 3.625 C-0.90972192 2.06741796 -0.90972192 2.06741796 0 0 Z " fill="#1F1F1F" transform="translate(103,308)"/>
<path d="M0 0 C0.33 0 0.66 0 1 0 C1 2.64 1 5.28 1 8 C0.34 8 -0.32 8 -1 8 C-1.99 6.02 -2.98 4.04 -4 2 C-3.01 2 -2.02 2 -1 2 C-0.67 1.34 -0.34 0.68 0 0 Z " fill="#212121" transform="translate(72,285)"/>
<path d="M0 0 C2 3 2 3 2 5 C2.66 5 3.32 5 4 5 C4 5.99 4 6.98 4 8 C2.68 8 1.36 8 0 8 C0 5.36 0 2.72 0 0 Z " fill="#6A4322" transform="translate(119,200)"/>
<path d="M0 0 C0.99 0 1.98 0 3 0 C2.67 1.98 2.34 3.96 2 6 C1.01 6 0.02 6 -1 6 C-1.042721 4.33388095 -1.04063832 2.66617115 -1 1 C-0.67 0.67 -0.34 0.34 0 0 Z " fill="#F8FAF5" transform="translate(255,203)"/>
<path d="M0 0 C1.98 0 3.96 0 6 0 C1.375 4.875 1.375 4.875 -2 6 C-2 5.34 -2 4.68 -2 4 C-1.34 4 -0.68 4 0 4 C0 2.68 0 1.36 0 0 Z " fill="#F2EADF" transform="translate(156,59)"/>
<path d="M0 0 C2.16874252 0.50603992 3.99967627 0.99983813 6 2 C5.67 2.66 5.34 3.32 5 4 C3.35 4 1.7 4 0 4 C0 2.68 0 1.36 0 0 Z " fill="#E2E2E2" transform="translate(290,333)"/>
<path d="M0 0 C1.32 0 2.64 0 4 0 C3.67 1.65 3.34 3.3 3 5 C2.01 4.67 1.02 4.34 0 4 C0 2.68 0 1.36 0 0 Z " fill="#F8F8F8" transform="translate(227,333)"/>
<path d="M0 0 C0.66 0 1.32 0 2 0 C1.67 2.31 1.34 4.62 1 7 C0.34 6.34 -0.32 5.68 -1 5 C-1.99 5 -2.98 5 -4 5 C-2.71937515 3.2925002 -1.38232443 1.62626404 0 0 Z " fill="#373737" transform="translate(329,308)"/>
<path d="M0 0 C1.32 0.33 2.64 0.66 4 1 C4.66 3.31 5.32 5.62 6 8 C5.01 8.495 5.01 8.495 4 9 C3.525625 7.88625 3.05125 6.7725 2.5625 5.625 C1.74693537 3.73289006 0.92143645 1.84287291 0 0 Z " fill="#F5ECE1" transform="translate(205,104)"/>
<path d="M0 0 C0.66 0.33 1.32 0.66 2 1 C2 2.32 2 3.64 2 5 C0.68 5 -0.64 5 -2 5 C-2 3.68 -2 2.36 -2 1 C-1.34 0.67 -0.68 0.34 0 0 Z " fill="#F4F4F4" transform="translate(229,326)"/>
<path d="M0 0 C0.66 0 1.32 0 2 0 C1.34 4.29 0.68 8.58 0 13 C-0.33 13 -0.66 13 -1 13 C-1.02686553 11.02090602 -1.04633375 9.04171029 -1.0625 7.0625 C-1.07410156 5.96035156 -1.08570313 4.85820312 -1.09765625 3.72265625 C-1 1 -1 1 0 0 Z " fill="#DBDBDB" transform="translate(177,287)"/>
<path d="M0 0 C0 1.32 0 2.64 0 4 C-1.98 3.34 -3.96 2.68 -6 2 C-6 1.34 -6 0.68 -6 0 C-2.25 -1.125 -2.25 -1.125 0 0 Z " fill="#FEF0D4" transform="translate(197,206)"/>
</svg>
